<?xml version="1.0" encoding="UTF-8"?>
<svg width="48" height="48" viewBox="0 0 48 48" fill="none" xmlns="http://www.w3.org/2000/svg">
  <path d="M32 16C38.6274 16 44 14.2091 44 12C44 9.79086 38.6274 8 32 8C25.3726 8 20 9.79086 20 12C20 14.2091 25.3726 16 32 16Z" stroke="#1E293B" stroke-width="2" stroke-linecap="round" stroke-linejoin="round"/>
  <path d="M44 12V20C44 22.2091 38.6274 24 32 24C25.3726 24 20 22.2091 20 20V12" stroke="#1E293B" stroke-width="2" stroke-linecap="round" stroke-linejoin="round"/>
  <path d="M16 28C22.6274 28 28 26.2091 28 24C28 21.7909 22.6274 20 16 20C9.37258 20 4 21.7909 4 24C4 26.2091 9.37258 28 16 28Z" stroke="#1E293B" stroke-width="2" stroke-linecap="round" stroke-linejoin="round"/>
  <path d="M28 24V32C28 34.2091 22.6274 36 16 36C9.37258 36 4 34.2091 4 32V24" stroke="#1E293B" stroke-width="2" stroke-linecap="round" stroke-linejoin="round"/>
  <path d="M4 32V40C4 42.2091 9.37258 44 16 44C22.6274 44 28 42.2091 28 40V32" stroke="#1E293B" stroke-width="2" stroke-linecap="round" stroke-linejoin="round"/>
  <path d="M44 20V28" stroke="#1E293B" stroke-width="2" stroke-linecap="round" stroke-linejoin="round"/>
  <path d="M44 28V36" stroke="#1E293B" stroke-width="2" stroke-linecap="round" stroke-linejoin="round"/>
</svg> 